<svg
	xmlns="http://www.w3.org/2000/svg" xml:space="preserve" width="128" height="128" viewBox="0 0 24 24">
	<path d="M12 12a.762.762 0 0 1-.292-.059L.458 7.191a.751.751 0 0 1 0-1.382l11.25-4.75a.747.747 0 0 1 .583 0l11.25 4.75a.75.75 0 0 1 .001 1.382l-11.25 4.75A.762.762 0 0 1 12 12zM2.678 6.5 12 10.436 21.322 6.5 12 2.564 2.678 6.5z"/>
	<path d="M12 16a.762.762 0 0 1-.292-.059l-11.25-4.75a.751.751 0 0 1 0-1.382l4.74-2a.75.75 0 0 1 .584 1.382L2.679 10.5 12 14.436l9.321-3.936-3.103-1.31a.748.748 0 0 1-.399-.982.75.75 0 0 1 .982-.399l4.74 2a.75.75 0 0 1 .001 1.382l-11.25 4.75A.762.762 0 0 1 12 16z"/>
	<path d="M12 20a.762.762 0 0 1-.292-.059l-11.25-4.75a.751.751 0 0 1 0-1.382l4.74-2a.75.75 0 1 1 .583 1.381L2.679 14.5 12 18.436l9.321-3.936-3.103-1.31a.75.75 0 1 1 .583-1.381l4.74 2a.75.75 0 0 1 .001 1.382l-11.25 4.75A.762.762 0 0 1 12 20z"/>
	<path d="M12 24a.762.762 0 0 1-.292-.059l-11.25-4.75a.751.751 0 0 1 0-1.382l4.74-2a.75.75 0 1 1 .583 1.381L2.679 18.5 12 22.436l9.321-3.936-3.103-1.31a.75.75 0 1 1 .583-1.381l4.74 2a.75.75 0 0 1 .001 1.382l-11.25 4.75A.762.762 0 0 1 12 24z"/>
</svg>