<svg
	xmlns="http://www.w3.org/2000/svg" id="Layer_1" width="128" height="128" data-name="Layer 1" viewBox="0 0 21.5 21.5">
	<defs>
		<style>.cls-1{fill-rule:evenodd}</style>
	</defs>
	<path d="M0 2.75C0 1.23 1.23 0 2.75 0h16c1.52 0 2.75 1.23 2.75 2.75v18c0 .41-.34.75-.75.75h-20c-.41 0-.75-.34-.75-.75v-18ZM2.75 1.5c-.69 0-1.25.56-1.25 1.25V20H20V2.75c0-.69-.56-1.25-1.25-1.25h-16Z" class="cls-1"/>
	<path d="M11.75 0c.41 0 .75.34.75.75v14c0 .41-.34.75-.75.75s-.75-.34-.75-.75v-14c0-.41.34-.75.75-.75ZM15.75 0c.41 0 .75.34.75.75v14c0 .41-.34.75-.75.75s-.75-.34-.75-.75v-14c0-.41.34-.75.75-.75Z" class="cls-1"/>
	<path d="M11 3.75c0-.41.34-.75.75-.75h4c.41 0 .75.34.75.75s-.34.75-.75.75h-4c-.41 0-.75-.34-.75-.75ZM11 6.75c0-.41.34-.75.75-.75h4c.41 0 .75.34.75.75s-.34.75-.75.75h-4c-.41 0-.75-.34-.75-.75ZM11 9.75c0-.41.34-.75.75-.75h4c.41 0 .75.34.75.75s-.34.75-.75.75h-4c-.41 0-.75-.34-.75-.75ZM11 12.75c0-.41.34-.75.75-.75h4c.41 0 .75.34.75.75s-.34.75-.75.75h-4c-.41 0-.75-.34-.75-.75Z" class="cls-1"/>
</svg>