<svg
	xmlns="http://www.w3.org/2000/svg" width="128" height="128" viewBox="0 0 24 24">
	<g fill-rule="evenodd">
		<path d="M.75 3a.75.75 0 0 1 .75-.75H18a.75.75 0 0 1 .75.75v5.5h-1.5V3.75h-15v11.5H14.5v1.5h-13A.75.75 0 0 1 .75 16V3Z"/>
		<path d="M5.788 15.763a.75.75 0 0 1 .712-.513H13v1.5H7.04l-.5 1.5H13v1.5H5.5a.75.75 0 0 1-.712-.987l1-3Z"/>
		<path d="M2.25 19a.75.75 0 0 1 .75-.75h11.5a.75.75 0 0 1 0 1.5H3a.75.75 0 0 1-.75-.75ZM3.75 9.5a.75.75 0 0 1 .75-.75h4a.75.75 0 0 1 0 1.5h-4a.75.75 0 0 1-.75-.75Z"/>
		<path d="M6.47 7.47a.75.75 0 0 1 1.06 0l1.5 1.5a.75.75 0 0 1 0 1.06l-1.5 1.5a.75.75 0 0 1-1.06-1.06l.97-.97-.97-.97a.75.75 0 0 1 0-1.06Z"/>
		<path d="M8.75 7a.75.75 0 0 1 .75-.75H12a.75.75 0 0 1 .75.75v5a.75.75 0 0 1-.75.75H9.5a.75.75 0 0 1 0-1.5h1.75v-3.5H9.5A.75.75 0 0 1 8.75 7ZM13.75 10A2.25 2.25 0 0 1 16 7.75h5A2.25 2.25 0 0 1 23.25 10v11A2.25 2.25 0 0 1 21 23.25h-5A2.25 2.25 0 0 1 13.75 21V10ZM16 9.25a.75.75 0 0 0-.75.75v11c0 .414.336.75.75.75h5a.75.75 0 0 0 .75-.75V10a.75.75 0 0 0-.75-.75h-5Z"/>
		<path d="M18.5 12.25a.75.75 0 1 0 0 1.5.75.75 0 0 0 0-1.5Zm-2.25.75a2.25 2.25 0 1 1 4.5 0 2.25 2.25 0 0 1-4.5 0Z"/>
		<path d="M18.5 13.75a.75.75 0 0 1 .75.75v3.75H20a.75.75 0 0 1 0 1.5h-1.5a.75.75 0 0 1-.75-.75v-4.5a.75.75 0 0 1 .75-.75Z"/>
		<path d="M17.75 16.5a.75.75 0 0 1 .75-.75H20a.75.75 0 0 1 0 1.5h-1.5a.75.75 0 0 1-.75-.75Z"/>
	</g>
</svg>